<?xml version="1.0" encoding="UTF-8" standalone="no"?>
<svg
   version="1.1"
   viewBox="0 0 64 64"
   id="svg16"
   sodipodi:docname="python.svg"
   inkscape:version="1.2.1 (9c6d41e410, 2022-07-14, custom)"
   width="64"
   height="64"
   xmlns:inkscape="http://www.inkscape.org/namespaces/inkscape"
   xmlns:sodipodi="http://sodipodi.sourceforge.net/DTD/sodipodi-0.dtd"
   xmlns="http://www.w3.org/2000/svg"
   xmlns:svg="http://www.w3.org/2000/svg">
  <defs
     id="defs20" />
  <sodipodi:namedview
     id="namedview18"
     pagecolor="#505050"
     bordercolor="#ffffff"
     borderopacity="1"
     inkscape:showpageshadow="0"
     inkscape:pageopacity="0"
     inkscape:pagecheckerboard="1"
     inkscape:deskcolor="#505050"
     showgrid="false"
     inkscape:zoom="5.6201693"
     inkscape:cx="68.681205"
     inkscape:cy="49.731598"
     inkscape:window-width="1354"
     inkscape:window-height="733"
     inkscape:window-x="5"
     inkscape:window-y="28"
     inkscape:window-maximized="1"
     inkscape:current-layer="svg16" />
  <rect
     style="fill:#1b1b1b;fill-opacity:1;stroke:none;stroke-width:2;stroke-linecap:square;stroke-opacity:1;paint-order:stroke fill markers"
     id="rect5365"
     width="62"
     height="62"
     x="1"
     y="1"
     rx="31"
     ry="31" />
  <path
     id="rect2"
     style="fill:#ffffff;fill-opacity:1;stroke-width:0.999997"
     d="M 32 12.273438 C 26.535893 12.273438 22.136719 14.473026 22.136719 17.205078 L 22.136719 22.136719 L 17.205078 22.136719 C 14.473026 22.136719 12.273437 26.535893 12.273438 32 C 12.273438 37.464107 14.473026 41.863281 17.205078 41.863281 L 22.136719 41.863281 L 22.136719 46.794922 C 22.136719 49.526974 26.535893 51.726563 32 51.726562 C 37.464107 51.726562 41.863281 49.526974 41.863281 46.794922 L 41.863281 41.863281 L 46.794922 41.863281 C 49.526974 41.863281 51.726563 37.464107 51.726562 32 C 51.726562 26.535893 49.526974 22.136719 46.794922 22.136719 L 41.863281 22.136719 L 41.863281 17.205078 C 41.863281 14.473026 37.464107 12.273437 32 12.273438 z M 26.576172 15.380859 A 1.824662 1.824662 0 0 1 28.400391 17.205078 A 1.824662 1.824662 0 0 1 26.576172 19.029297 A 1.824662 1.824662 0 0 1 24.75 17.205078 A 1.824662 1.824662 0 0 1 26.576172 15.380859 z M 37.423828 44.970703 A 1.824662 1.824662 0 0 1 39.25 46.794922 A 1.824662 1.824662 0 0 1 37.423828 48.619141 A 1.824662 1.824662 0 0 1 35.599609 46.794922 A 1.824662 1.824662 0 0 1 37.423828 44.970703 z " />
  <line
     x1="22.136963"
     y1="21.64381"
     x2="32"
     y2="21.64381"
     stroke="white"
     id="line10"
     style="fill:#000000;stroke:#1b1b1b;stroke-width:0.999997;stroke-opacity:1" />
  <line
     x1="32"
     y1="42.35619"
     x2="41.863037"
     y2="42.35619"
     stroke="white"
     id="line12"
     style="fill:#000000;stroke:#1b1b1b;stroke-width:0.999997;stroke-opacity:1" />
  <path
     d="M 21.643811,41.863037 C 21.643811,32 24.10957,32 31.506848,32 c 8.383582,0 10.849341,0 10.849341,-9.863037"
     stroke="white"
     fill="none"
     id="path14"
     style="fill:none;stroke:#1b1b1b;stroke-width:0.999997;stroke-opacity:1" />
</svg>
